<svg xmlns="http://www.w3.org/2000/svg" viewBox="0 0 512 512">
  <defs>
    <linearGradient id="sky" x1="256" x2="256" y1="64" y2="448" gradientUnits="userSpaceOnUse">
      <stop offset="0" stop-color="#8fd4f6" />
      <stop offset="1" stop-color="#e9f8ff" />
    </linearGradient>
    <linearGradient id="bluePanel" x1="180" x2="340" y1="132" y2="312" gradientUnits="userSpaceOnUse">
      <stop offset="0" stop-color="#53b9ff" />
      <stop offset="1" stop-color="#1a78d6" />
    </linearGradient>
    <linearGradient id="orangePanel" x1="210" x2="280" y1="124" y2="330" gradientUnits="userSpaceOnUse">
      <stop offset="0" stop-color="#ff9257" />
      <stop offset="1" stop-color="#ff5d2a" />
    </linearGradient>
    <linearGradient id="yellowPanel" x1="286" x2="354" y1="126" y2="326" gradientUnits="userSpaceOnUse">
      <stop offset="0" stop-color="#ffe56b" />
      <stop offset="1" stop-color="#ffc52a" />
    </linearGradient>
    <filter id="shadow" x="-20%" y="-20%" width="140%" height="140%">
      <feDropShadow dx="0" dy="12" stdDeviation="12" flood-color="#9bcde4" flood-opacity="0.32" />
    </filter>
  </defs>

  <rect width="512" height="512" fill="#ffffff" />
  <circle cx="256" cy="248" r="204" fill="url(#sky)" />
  <ellipse cx="256" cy="434" rx="122" ry="28" fill="#dceff8" opacity="0.9" />

  <g fill="#ffffff" opacity="0.96">
    <path d="M128 174c0-14 11-26 26-26 9 0 17 4 22 11 3-1 6-2 9-2 11 0 20 9 20 20h-77Z" />
    <path d="M352 150c0-13 11-24 24-24 8 0 15 4 19 10 3-1 6-1 8-1 11 0 19 8 19 19h-70Z" />
    <path d="M148 318c0-14 12-26 27-26 9 0 17 5 21 12 3-1 6-2 10-2 11 0 20 9 20 20h-78Z" />
    <path d="M352 304c0-13 11-23 23-23 8 0 15 4 19 10 3-1 6-1 9-1 10 0 19 8 19 19h-70Z" />
  </g>

  <g filter="url(#shadow)" stroke="#17244f" stroke-linecap="round" stroke-linejoin="round">
    <path
      d="M256 96c-72 0-128 57-128 128 0 98 90 164 128 191 38-27 128-93 128-191 0-71-56-128-128-128Z"
      fill="#ffffff"
      stroke-width="11"
    />

    <path
      d="M181 124c-32 25-52 61-52 100 0 46 19 87 49 123 14 17 33 35 58 54V108c-20 2-38 8-55 16Z"
      fill="url(#bluePanel)"
      stroke-width="9"
    />
    <path
      d="M221 108c-20 19-32 62-32 110 0 70 17 129 47 181V104c-5 0-10 1-15 4Z"
      fill="#ffffff"
      stroke-width="9"
    />
    <path
      d="M236 104h40v296c-8 6-14 11-20 15-6-4-12-9-20-15V104Z"
      fill="url(#orangePanel)"
      stroke-width="9"
    />
    <path
      d="M276 104c16 0 31 3 45 9 22 18 36 61 36 111 0 67-18 126-46 176-11 0-23 0-35 0V104Z"
      fill="url(#bluePanel)"
      stroke-width="9"
    />
    <path
      d="M321 113c35 23 63 64 63 111 0 94-84 157-123 185 31-53 50-115 50-185 0-47-9-87-26-111 13 0 25 0 36 0Z"
      fill="url(#yellowPanel)"
      stroke-width="9"
    />
    <path
      d="M363 134c17 22 26 50 26 80 0 74-53 129-90 167 30-45 49-98 49-157 0-37-7-68-21-95 14 2 26 4 36 5Z"
      fill="#f24c3d"
      stroke-width="9"
    />

    <path d="M160 189c28-28 68-44 96-44s68 16 96 44" fill="none" stroke-width="8" />
    <path d="M143 242c23-16 51-24 79-24 9 0 18 1 26 2" fill="none" stroke-width="8" />
    <path d="M262 220c9-1 19-2 28-2 28 0 56 8 79 24" fill="none" stroke-width="8" />
    <path d="M201 114c-18 24-29 68-29 121 0 43 7 85 20 122" fill="none" stroke-width="8" />
    <path d="M236 103c-11 20-18 63-18 117 0 54 7 104 18 140" fill="none" stroke-width="8" />
    <path d="M276 103c11 20 18 63 18 117 0 54-7 104-18 140" fill="none" stroke-width="8" />
    <path d="M311 113c18 24 29 68 29 121 0 43-7 85-20 122" fill="none" stroke-width="8" />

    <path d="M211 333h90" fill="none" stroke-width="9" />
    <path d="M224 334 205 384" fill="none" stroke-width="8" />
    <path d="M288 334 307 384" fill="none" stroke-width="8" />
    <path d="M232 334 222 384" fill="none" stroke-width="8" />
    <path d="M280 334 290 384" fill="none" stroke-width="8" />

    <rect x="216" y="384" width="80" height="56" rx="10" fill="#8b5a3b" stroke-width="9" />
    <path d="M230 403h52" fill="none" stroke="#c28a57" stroke-width="7" />
    <path d="M228 418h56" fill="none" stroke="#c28a57" stroke-width="7" />
    <path d="M244 372h24v16h-24Z" fill="#ffd24b" stroke-width="8" />
  </g>
</svg>
