<svg xmlns="http://www.w3.org/2000/svg" viewBox="0 0 512 512">
  <defs>
    <linearGradient id="sky" x1="256" x2="256" y1="32" y2="480" gradientUnits="userSpaceOnUse">
      <stop offset="0" stop-color="#c7f0ff" />
      <stop offset="1" stop-color="#fff4cf" />
    </linearGradient>
    <linearGradient id="balloon" x1="186" x2="326" y1="112" y2="302" gradientUnits="userSpaceOnUse">
      <stop offset="0" stop-color="#ff6b4a" />
      <stop offset="0.5" stop-color="#ff9e3d" />
      <stop offset="1" stop-color="#ffd166" />
    </linearGradient>
  </defs>
  <rect width="512" height="512" rx="112" fill="url(#sky)" />
  <circle cx="394" cy="110" r="42" fill="#fff8d8" opacity="0.95" />
  <path
    d="M162 166c-18 0-34 10-43 26-3-1-7-1-10-1-20 0-37 17-37 37s17 37 37 37h96c21 0 38-17 38-38s-17-38-38-38c-4 0-9 1-13 2-7-15-23-25-40-25Z"
    fill="#ffffff"
    opacity="0.78"
  />
  <path
    d="M322 205c-15 0-29 8-36 22-3-1-5-1-8-1-17 0-30 13-30 30s13 30 30 30h82c17 0 30-13 30-30s-13-30-30-30c-4 0-7 0-10 1-6-13-16-22-28-22Z"
    fill="#ffffff"
    opacity="0.65"
  />
  <ellipse cx="256" cy="410" rx="104" ry="28" fill="#dbd1b4" opacity="0.42" />
  <path
    d="M256 104c-72 0-126 58-126 126 0 84 83 142 126 170 43-28 126-86 126-170 0-68-54-126-126-126Z"
    fill="url(#balloon)"
  />
  <path
    d="M256 104c-72 0-126 58-126 126 0 84 83 142 126 170 43-28 126-86 126-170 0-68-54-126-126-126Z"
    fill="none"
    stroke="#1b365d"
    stroke-width="18"
    stroke-linejoin="round"
  />
  <path
    d="M206 122c-30 22-50 60-50 98 0 63 54 113 100 146V112c-18 0-35 4-50 10Z"
    fill="#ff8258"
    opacity="0.78"
  />
  <path
    d="M308 122c30 22 50 60 50 98 0 63-54 113-100 146V112c18 0 35 4 50 10Z"
    fill="#ffe08a"
    opacity="0.7"
  />
  <path d="M204 122c19 28 31 92 31 178" fill="none" stroke="#1b365d" stroke-width="12" stroke-linecap="round" />
  <path d="M256 110v242" fill="none" stroke="#1b365d" stroke-width="12" stroke-linecap="round" />
  <path d="M308 122c-19 28-31 92-31 178" fill="none" stroke="#1b365d" stroke-width="12" stroke-linecap="round" />
  <path d="M226 292h60" fill="none" stroke="#1b365d" stroke-width="11" stroke-linecap="round" />
  <path d="M232 309 218 352" fill="none" stroke="#1b365d" stroke-width="9" stroke-linecap="round" />
  <path d="M280 309 294 352" fill="none" stroke="#1b365d" stroke-width="9" stroke-linecap="round" />
  <rect x="217" y="352" width="78" height="54" rx="14" fill="#8b5a2b" />
  <rect
    x="217"
    y="352"
    width="78"
    height="54"
    rx="14"
    fill="none"
    stroke="#1b365d"
    stroke-width="10"
  />
  <path d="M233 372h46" fill="none" stroke="#d39b58" stroke-width="8" stroke-linecap="round" />
</svg>
